<mxfile host="Electron" modified="2024-05-23T07:03:39.558Z" agent="Mozilla/5.0 (Windows NT 10.0; Win64; x64) AppleWebKit/537.36 (KHTML, like Gecko) draw.io/24.4.6 Chrome/124.0.6367.207 Electron/30.0.6 Safari/537.36" etag="s7kUDMj_QkFtJKxL8BuG" version="24.4.6" type="device">
  <diagram name="Page-1" id="p3gzTvM-7l3DDRHW7Woc">
    <mxGraphModel dx="1050" dy="621" grid="1" gridSize="10" guides="1" tooltips="1" connect="1" arrows="1" fold="1" page="1" pageScale="1" pageWidth="850" pageHeight="1100" math="0" shadow="0">
      <root>
        <mxCell id="0" />
        <mxCell id="1" parent="0" />
        <mxCell id="vbVfio-ikI-QH2Pf9PGL-1" value="RandomSentences" style="swimlane;fontSize=14;startSize=23;" vertex="1" parent="1">
          <mxGeometry x="290" y="150" width="200" height="70" as="geometry" />
        </mxCell>
        <mxCell id="vbVfio-ikI-QH2Pf9PGL-2" value="&lt;div&gt;+ RandomSentences()&lt;br&gt;&lt;/div&gt;&lt;div&gt;+ main(String[] args): void&lt;/div&gt;" style="text;html=1;align=left;verticalAlign=middle;resizable=0;points=[];autosize=1;strokeColor=none;fillColor=none;fontSize=15;" vertex="1" parent="vbVfio-ikI-QH2Pf9PGL-1">
          <mxGeometry y="25" width="200" height="50" as="geometry" />
        </mxCell>
      </root>
    </mxGraphModel>
  </diagram>
</mxfile>
